<svg width="132" height="61" viewBox="0 0 132 61" fill="none" xmlns="http://www.w3.org/2000/svg">
<g clip-path="url(#clip0_1_44)">
<path d="M79.9747 18.5013L76.6541 29.2373H74.3238L72.0644 23.4115L70.2612 29.2373H67.5315L70.852 18.5013H73.317L75.5032 24.1334L77.245 18.5013H79.9747Z" fill="black"/>
<path d="M85.3987 27.4937H81.7733L80.6672 29.2373H77.6491L84.9875 18.5013H87.7408L88.5255 29.2373H85.4223L85.3987 27.4937ZM85.3254 21.8524L83.1747 25.1782H85.4271L85.3254 21.8524Z" fill="black"/>
<path d="M98.6455 21.1628H95.8685L93.3704 29.235H90.5414L93.0395 21.1628H90.2578L91.0826 18.499H99.4679L98.6455 21.1628Z" fill="black"/>
<path d="M100.732 18.5013H103.587L100.267 29.2373H97.4118L100.732 18.5013Z" fill="black"/>
<path d="M107.265 29.5071C103.977 29.5071 102.361 27.1501 103.375 23.8682C104.389 20.5863 107.466 18.2292 110.753 18.2292C114.031 18.2292 115.643 20.5793 114.624 23.8682C113.608 27.1593 110.543 29.5071 107.265 29.5071ZM111.691 23.8682C112.211 22.1892 111.457 20.9806 109.902 20.9806C108.345 20.9806 106.825 22.1961 106.31 23.8682C105.792 25.5402 106.56 26.7557 108.118 26.7557C109.673 26.7557 111.171 25.5495 111.691 23.8682Z" fill="black"/>
<path d="M126.857 18.5013L123.537 29.2373H121.206L118.947 23.4115L117.144 29.2373H114.412L117.732 18.5013H120.197L122.383 24.1334L124.125 18.5013H126.857Z" fill="black"/>
<path d="M27.7793 6.29166L29.6156 0H6.99327L5.15691 6.29166H12.1029L0 47.7386H9.00215L21.1051 6.29396H27.7793V6.29166ZM114.506 17.452L111.94 0H104.861L99.7657 17.452H114.506ZM123.877 0L119.316 15.623L118.871 17.452H126.907L132 0H123.877ZM101.772 0H92.737L87.6415 17.452H96.6768L101.772 0ZM83.8932 30.2844L78.7977 47.7363H87.833L92.9285 30.2844H83.8932ZM111.656 47.7386H118.061L123.156 30.2867H109.148L111.656 47.7386ZM90.9219 47.7386H99.2505L104.249 30.6234L104.334 30.2867H96.0198L90.9219 47.7386ZM82.3641 30.2844H79.8566C79.1664 30.6211 78.4716 30.9601 77.7862 31.2968C76.2429 32.0556 74.7114 32.8167 73.2249 33.5778C71.8494 34.2812 70.5141 34.9893 69.1906 35.695C66.7539 36.9981 64.3693 38.3011 61.9397 39.6042C61.8144 39.5996 61.6892 39.595 61.5639 39.5904C63.8044 38.1328 66.4609 36.6729 69.2544 35.2176C70.8331 34.3942 72.452 33.5732 74.0686 32.7521C75.3141 32.1202 76.5714 31.486 77.8311 30.854C78.2093 30.6649 78.5921 30.4735 78.9726 30.2844H78.4669C78.2683 30.3812 78.0604 30.4781 77.8618 30.575C74.9265 32.0049 72.0715 33.4394 69.2969 34.8763C65.5415 36.8228 61.9373 38.7786 58.4797 40.7435C56.9529 41.6107 55.4451 42.4779 53.9774 43.3474C54.1571 43.1398 54.469 42.9323 54.7999 42.7224C56.0407 41.9359 57.3264 41.1518 58.6451 40.3676C61.9917 38.3796 65.577 36.3892 69.3584 34.3896C71.9321 33.0289 74.5933 31.6612 77.3254 30.2867H76.666C74.1726 31.5206 71.7619 32.7567 69.408 33.9952C65.7424 35.9233 62.2469 37.8537 58.9027 39.7864C57.1349 40.8081 55.3955 41.8298 53.7127 42.8538C53.6867 42.7593 53.6607 42.6647 53.6347 42.5702C55.3978 41.3916 57.2744 40.2108 59.236 39.0299C62.4289 37.1088 65.8676 35.1853 69.5002 33.2595C71.3696 32.2701 73.2887 31.2784 75.2503 30.2867H73.2934C72.0692 30.8909 70.8544 31.4952 69.6467 32.1017C67.574 33.1396 65.5273 34.1774 63.5397 35.2199C62.3816 35.8265 61.2472 36.433 60.1199 37.0396C56.2392 39.1314 52.5121 41.2279 48.7567 43.3243L49.1159 42.5586C51.035 41.3247 52.9777 40.0886 55.0741 38.8477C56.8986 37.7684 58.8011 36.6821 60.7604 35.5958C62.6251 34.5626 64.5442 33.5294 66.501 32.5007C67.5811 31.9334 68.6895 31.3683 69.8098 30.8033C70.1501 30.6303 70.4999 30.4596 70.8426 30.2867H70.1714C70.0674 30.3374 69.961 30.3881 69.8547 30.4412C66.8366 31.9149 63.8895 33.3887 61.2094 34.8624C61.1527 34.8947 61.0983 34.9247 61.0416 34.957L72.3717 9.41442H72.5064L71.4925 17.4543H79.2137L81.0241 0H69.0889L49.5886 41.5531C47.9366 42.5448 46.3224 43.5365 44.7319 44.5259C45.1573 42.9092 45.7788 40.6951 46.6013 37.8768C48.388 31.7558 49.1609 27.729 48.9174 25.7939C48.6716 23.8589 47.5703 22.7473 45.6087 22.4567C47.8279 21.9332 49.5437 20.9115 50.7514 19.3916C51.9591 17.8717 52.9872 15.6623 53.8333 12.7609C54.6817 9.85954 55.126 7.50709 55.1686 5.70816C55.2088 3.90922 54.6132 2.50698 53.3795 1.50372C52.1458 0.502779 49.9762 0 46.8755 0H31.9412L17.9996 47.7386H27.0348L33.6168 25.1989L36.4836 25.3073C38.3814 25.3442 39.5466 25.7109 39.972 26.4051C40.3974 27.1016 40.3005 28.5085 39.6837 30.6234C36.4576 41.673 34.9049 47.3765 35.0231 47.7386H39.6742C38.0718 48.7765 36.4978 49.8097 34.9569 50.8429C29.0957 54.6415 33.1891 54.0118 39.393 50.1349C39.6411 50.0403 32.0216 56.6895 27.8502 60.1236C27.5666 60.3565 27.6989 60.5226 27.5477 61C28.8735 60.2966 29.6983 59.9276 30.1687 59.5978C31.4213 58.7214 32.4753 57.868 33.6877 56.9939C37.852 53.9934 42.4157 52.0123 42.8459 52.3328C45.0415 50.8337 47.3009 49.2908 49.5768 47.7363H50.3355C49.3168 48.6542 48.1895 49.699 47.5868 50.3725C47.6625 50.3563 49.3617 49.3277 51.9969 47.7363C53.3275 46.9337 54.8944 45.9881 56.6197 44.9526C60.3066 42.7385 64.6907 40.1255 68.9448 37.6577L67.6591 47.7363H76.0869L77.6373 32.7452C79.1972 31.8965 80.6223 31.1492 81.8371 30.5496C82.0143 30.4619 82.1868 30.3743 82.3641 30.2844ZM41.6335 18.9326C40.9599 19.3478 40.0523 19.5553 38.9061 19.5553H35.2996L39.3788 5.58592H42.4465C44.4034 5.58592 45.5331 5.98491 45.8403 6.7806C46.1475 7.57628 45.923 9.26682 45.1667 11.8522L45.0793 12.1497C44.4719 14.23 43.9141 15.7753 43.406 16.7877C42.8955 17.8025 42.3047 18.5175 41.6335 18.9326Z" fill="#FF00FF"/>
</g>
<defs>
<clipPath id="clip0_1_44">
<rect width="132" height="61" fill="white"/>
</clipPath>
</defs>
</svg>
