<svg width="80" height="80" viewBox="0 0 80 80" fill="none" xmlns="http://www.w3.org/2000/svg">
<path d="M71.6361 28.1524C71.3503 27.8751 71.1229 27.5435 70.9671 27.1771C70.8114 26.8107 70.7305 26.4168 70.7291 26.0187V17.5905C70.7263 15.3844 69.8486 13.2694 68.2884 11.7094C66.7282 10.1495 64.613 9.27182 62.4066 9.269H53.9773C53.5792 9.26737 53.1853 9.18632 52.8189 9.03061C52.4525 8.8749 52.1208 8.64765 51.8433 8.36217L45.9215 2.44111C44.3473 0.877537 42.2185 0 39.9997 0C37.7808 0 35.652 0.877537 34.0778 2.44111L28.156 8.36217C27.8785 8.64765 27.5468 8.8749 27.1804 9.03061C26.814 9.18632 26.4202 9.26737 26.022 9.269H17.5928C15.3863 9.27182 13.2711 10.1495 11.7109 11.7094C10.1508 13.2694 9.27302 15.3844 9.2702 17.5905V26.0187C9.26886 26.4168 9.18794 26.8107 9.0322 27.1771C8.87644 27.5435 8.64901 27.8751 8.36325 28.1524L2.44142 34.0734C0.87765 35.6474 0 37.7759 0 39.9945C0 42.2131 0.87765 44.3416 2.44142 45.9156L8.36325 51.8366C8.64901 52.1139 8.87644 52.4455 9.0322 52.8119C9.18794 53.1783 9.26886 53.5722 9.2702 53.9703V62.3985C9.27302 64.6047 10.1508 66.7196 11.7109 68.2796C13.2711 69.8396 15.3863 70.7172 17.5928 70.72H26.022C26.4202 70.7216 26.814 70.8027 27.1804 70.9584C27.5468 71.1141 27.8785 71.3414 28.156 71.6268L34.0778 77.5479C35.6486 79.118 37.7786 80 39.9997 80C42.2207 80 44.3508 79.118 45.9215 77.5479L51.8433 71.6268C52.1208 71.3414 52.4525 71.1141 52.8189 70.9584C53.1853 70.8027 53.5792 70.7216 53.9773 70.72H62.4066C64.613 70.7172 66.7282 69.8396 68.2884 68.2796C69.8486 66.7196 70.7263 64.6047 70.7291 62.3985V53.9703C70.7305 53.5722 70.8114 53.1783 70.9671 52.8119C71.1229 52.4455 71.3503 52.1139 71.6361 51.8366L77.5579 45.9156C79.1217 44.3416 79.9993 42.2131 79.9993 39.9945C79.9993 37.7759 79.1217 35.6474 77.5579 34.0734L71.6361 28.1524Z" fill="#4793FF"/>
<path d="M57.0661 32.7378L37.6116 52.3027C36.9072 52.9621 35.9792 53.3289 35.0152 53.3289C34.0512 53.3289 33.1232 52.9621 32.4188 52.3027L22.6915 42.4836C22.0239 41.8011 21.6521 40.8822 21.6569 39.9265C21.6618 38.9709 22.0428 38.0558 22.7173 37.38C23.3917 36.7043 24.3051 36.3225 25.2589 36.3177C26.2127 36.3129 27.1299 36.6854 27.8111 37.3542L34.9786 44.5354L51.9465 27.5351C52.631 26.8656 53.5497 26.4907 54.5063 26.4907C55.4629 26.4907 56.3816 26.8656 57.0661 27.5351C57.4133 27.8732 57.6894 28.2776 57.8778 28.7244C58.0663 29.1712 58.1634 29.6514 58.1634 30.1365C58.1634 30.6216 58.0663 31.1017 57.8778 31.5485C57.6894 31.9953 57.4133 32.3997 57.0661 32.7378Z" fill="white"/>
</svg>
