<svg width="59" height="70" viewBox="0 0 59 70" fill="none" xmlns="http://www.w3.org/2000/svg">
<path d="M49.5833 24.57V20.4167C49.5833 15.0018 47.4323 9.80877 43.6034 5.9799C39.7746 2.15104 34.5815 0 29.1667 0C23.7518 0 18.5588 2.15104 14.7299 5.9799C10.901 9.80877 8.75 15.0018 8.75 20.4167V24.57C6.1523 25.7037 3.94127 27.5699 2.38729 29.9402C0.833307 32.3105 0.0037286 35.0824 0 37.9167V55.4167C0.00463125 59.283 1.54257 62.9896 4.27647 65.7235C7.01038 68.4574 10.717 69.9954 14.5833 70H43.75C47.6163 69.9954 51.323 68.4574 54.0569 65.7235C56.7908 62.9896 58.3287 59.283 58.3333 55.4167V37.9167C58.3296 35.0824 57.5 32.3105 55.946 29.9402C54.3921 27.5699 52.181 25.7037 49.5833 24.57ZM14.5833 20.4167C14.5833 16.5489 16.1198 12.8396 18.8547 10.1047C21.5896 7.36979 25.2989 5.83333 29.1667 5.83333C33.0344 5.83333 36.7437 7.36979 39.4786 10.1047C42.2135 12.8396 43.75 16.5489 43.75 20.4167V23.3333H14.5833V20.4167ZM52.5 55.4167C52.5 57.7373 51.5781 59.9629 49.9372 61.6039C48.2962 63.2448 46.0706 64.1667 43.75 64.1667H14.5833C12.2627 64.1667 10.0371 63.2448 8.39615 61.6039C6.75521 59.9629 5.83333 57.7373 5.83333 55.4167V37.9167C5.83333 35.596 6.75521 33.3704 8.39615 31.7295C10.0371 30.0885 12.2627 29.1667 14.5833 29.1667H43.75C46.0706 29.1667 48.2962 30.0885 49.9372 31.7295C51.5781 33.3704 52.5 35.596 52.5 37.9167V55.4167Z" fill="#0C2939"/>
<path d="M29.1667 40.8335C28.3931 40.8335 27.6513 41.1408 27.1043 41.6878C26.5573 42.2347 26.25 42.9766 26.25 43.7502V49.5835C26.25 50.357 26.5573 51.0989 27.1043 51.6459C27.6513 52.1929 28.3931 52.5002 29.1667 52.5002C29.9402 52.5002 30.6821 52.1929 31.2291 51.6459C31.776 51.0989 32.0833 50.357 32.0833 49.5835V43.7502C32.0833 42.9766 31.776 42.2347 31.2291 41.6878C30.6821 41.1408 29.9402 40.8335 29.1667 40.8335Z" fill="#0C2939"/>
</svg>
