<svg width="192" height="50" viewBox="0 0 192 50" fill="none" xmlns="http://www.w3.org/2000/svg">
<path d="M19.8104 50C5.9892 50 0 45 0 39.6153C0 36.0384 2.38032 32.4999 8.59988 32.4999C12.3239 32.4999 14.8194 34.4999 14.8194 35.4615C14.8194 35.7692 14.5123 36.8076 14.5123 37.8846C14.5123 39.8846 15.9712 42.0384 19.772 42.0384C23.0354 42.0384 24.3791 40.1923 24.3791 37.9999C24.3791 30.923 0.806239 31.4999 0.806239 16.4999C0.806239 8.61528 8.63827 2.46143 19.5033 2.46143C32.6335 2.46143 38.2771 7.46143 38.2771 12.8461C38.2771 16.423 36.0504 19.9615 30.138 19.9615C26.6059 19.9615 24.2256 17.9615 24.2256 16.9999C24.2256 16.6922 24.5327 15.6538 24.5327 14.5768C24.5327 12.5768 23.3809 10.2691 20.3095 10.423C18.0828 10.4999 16.3935 12.2691 16.3935 14.4614C16.3935 23.1153 40.1584 22.3461 40.1584 35.9615C40.1968 43.8461 31.3665 50 19.8104 50Z" fill="#0A274F"/>
<path d="M66.4572 32.3461C63.8465 32.3461 61.3894 30.8077 61.3894 29.5384C61.3894 28.6538 61.6965 27.2308 61.6965 25.9615C61.6965 23.3846 60.9287 22.1154 59.1242 22.1154C56.36 22.1154 54.2484 26.4615 54.2484 30.9615C54.2484 35.8461 56.7439 40.9231 63.9233 40.9231C68.5303 40.9231 71.4098 38.5385 72.9071 38.5385C73.4062 38.5385 73.6749 38.8077 73.6749 39.4231C73.6749 42.3077 68.3384 49.8077 59.009 49.8077C47.4146 49.8077 41.4637 42.1539 41.4637 32.7308C41.4637 23.5384 48.2592 15.6538 59.6617 15.6538C67.4937 15.6538 73.2526 19.8077 73.2526 25.5384C73.2526 28.5 71.2562 32.3461 66.4572 32.3461Z" fill="#0A274F"/>
<path d="M110.109 36.7692C110.109 40.2308 110.8 41.7692 112.528 42.9231C112.989 43.2308 113.104 43.3846 113.104 43.8846C113.104 45.0385 110.531 49.9231 105.041 49.9231C101.01 49.9231 98.5531 47.5385 97.7468 44.1923C97.6317 43.7308 97.5549 43.3077 97.4781 42.8462L97.2861 42.7692C94.7906 48.3077 90.1835 49.8462 86.6514 49.8462C81.7372 49.8462 77.7444 46.8462 77.7444 40.3462V28.7692C77.7444 25.3846 76.6694 23.8846 74.9802 22.8077C74.673 22.6154 74.4043 22.4231 74.4043 21.7692C74.4043 20.5384 77.015 15.6538 82.4283 15.6538C87.0354 15.6538 90.6826 18.423 90.6826 23.6923V37.3462C90.6826 39.9231 91.7192 41.1154 92.9862 41.1154C94.829 41.1154 97.1326 38.6154 97.1326 33.8461C97.1326 17.1538 97.1326 17.0769 97.1326 17.0769C97.1326 16.8077 97.4013 16.6923 97.4013 16.6923C99.2441 16.3077 101.624 16.0384 103.813 16.0384C106.001 16.0384 107.921 16.2307 109.956 16.6153C109.956 16.6153 110.148 16.7307 110.148 17C110.109 17.2692 110.109 32.9231 110.109 36.7692Z" fill="#0A274F"/>
<path d="M116.021 0.653847C117.826 0.269231 119.937 0 121.934 0C124.161 0 126.464 0.192308 128.422 0.653847C128.422 0.653847 128.691 0.73077 128.691 0.96154V21.1154H128.883C130.994 17.2693 134.527 15.7308 138.558 15.7308C146.62 15.7308 151.035 23.4231 151.035 32.6154C151.035 41.4231 146.62 49.8078 138.212 49.8078C133.912 49.8078 130.15 47.0385 128.461 43.2693H128.269L127.002 48.3847C126.925 48.6924 126.695 48.7693 126.695 48.7693C125.236 49.1539 123.508 49.4232 121.627 49.4232C119.592 49.4232 117.787 49.1539 116.06 48.7693C116.06 48.7693 115.791 48.6924 115.791 48.4616V0.96154C115.753 0.846155 115.829 0.692309 116.021 0.653847ZM128.192 32.5385C128.192 37.1539 129.843 40.9616 133.106 40.9616C136.293 40.9616 137.982 37.1924 137.982 32.5385C137.982 27.8462 136.331 24.077 133.106 24.077C129.843 24.077 128.192 27.8462 128.192 32.5385Z" fill="#0A274F"/>
<path d="M191.424 42.9232C191.885 43.2309 192 43.3847 192 43.8847C192 46.1924 188.429 49.8463 183.938 49.8463C179.599 49.8463 176.451 47.4232 175.875 43.2309H175.683C173.879 47.3463 170.116 49.7694 165.74 49.7694C157.677 49.7694 153.185 41.8847 153.185 33.2693C153.185 24.5385 157.677 15.6924 166.047 15.6924C170.347 15.6924 173.725 17.7308 175.453 21.1539H175.645L176.297 17.0385C176.297 16.8462 176.413 16.7308 176.605 16.6539C178.716 16.2693 180.367 16.1539 182.517 16.1539C184.744 16.1539 186.932 16.3462 188.621 16.6539C188.813 16.7308 188.929 16.8462 188.929 17.0385C188.929 17.0385 188.737 32.3078 188.737 36.6924C188.698 40.2309 189.696 41.7693 191.424 42.9232ZM176.106 32.5386C176.106 27.8462 174.455 24.077 171.191 24.077C168.005 24.077 166.315 27.8462 166.315 32.5386C166.315 37.154 167.966 40.9617 171.191 40.9617C174.416 40.9617 176.106 37.154 176.106 32.5386Z" fill="#0A274F"/>
</svg>
