<svg width="68" height="80" viewBox="0 0 68 80" fill="none" xmlns="http://www.w3.org/2000/svg">
<path fill-rule="evenodd" clip-rule="evenodd" d="M33.3989 79.9104C33.7918 80.0299 34.2097 80.0299 34.6026 79.9104C42.9188 77.3855 50.4153 72.5689 56.2902 65.9759C62.1651 59.3829 66.1976 51.2614 67.9562 42.4801C67.9856 42.3321 68.0003 42.1812 68 42.0301V14.9789C67.9999 14.5342 67.8698 14.0998 67.6268 13.733C67.3838 13.3661 67.0393 13.0839 66.6385 12.9233L34.7703 0.148755C34.2751 -0.049585 33.7262 -0.049585 33.231 0.148755L1.36154 12.9233C0.960698 13.0839 0.616158 13.3661 0.373165 13.733C0.130173 14.0998 8.96962e-05 14.5342 0 14.9789V42.0301C0.000266593 42.1813 0.0155671 42.3321 0.045659 42.4801C1.80393 51.2615 5.83619 59.3831 11.7111 65.9762C17.586 72.5692 25.0826 77.3857 33.3989 79.9104Z" fill="black"/>
<path d="M44.4664 30.1626L30.7055 43.8302L24.8333 37.9976C24.2956 37.4813 23.5751 37.1955 22.8272 37.2018C22.0794 37.2081 21.3639 37.506 20.8351 38.0314C20.3063 38.5567 20.0064 39.2673 20.0001 40.0102C19.9938 40.753 20.2816 41.4686 20.8015 42.0027L28.6895 49.8376C28.954 50.1009 29.2682 50.3097 29.6142 50.452C29.9602 50.5943 30.331 50.6673 30.7055 50.6668C31.0799 50.6673 31.4508 50.5943 31.7967 50.452C32.1427 50.3097 32.4569 50.1009 32.7214 49.8376L48.4979 34.1677C48.7627 33.9048 48.9728 33.5927 49.1161 33.2491C49.2595 32.9056 49.3333 32.5373 49.3333 32.1655C49.3334 31.7936 49.2596 31.4253 49.1164 31.0817C48.9731 30.7381 48.763 30.426 48.4983 30.163C47.9636 29.632 47.2385 29.3336 46.4824 29.3335C45.7263 29.3334 45.0011 29.6317 44.4664 30.1626Z" fill="white"/>
<path fill-rule="evenodd" clip-rule="evenodd" d="M4.82633 16.887L34 5.18109L63.1725 16.887V41.7534C61.5869 49.4614 58.049 56.5932 52.9221 62.4162C47.7952 68.2393 41.2642 72.5436 34 74.8872C26.7356 72.5437 20.2044 68.2394 15.0773 62.4164C9.95024 56.5933 6.41209 49.4615 4.82633 41.7534V16.887ZM33.3186 79.8983C33.7637 80.0339 34.2371 80.0339 34.6821 79.8983C42.9768 77.3768 50.4539 72.5674 56.3138 65.9844C62.1736 59.4014 66.1958 51.2924 67.9502 42.5245C67.9831 42.3566 67.9998 42.1857 68 42.0144V15.1747C67.9999 14.6704 67.8526 14.1779 67.5773 13.7619C67.3021 13.3459 66.9118 13.0258 66.4577 12.8437L34.8722 0.169217C34.3114 -0.0564056 33.6894 -0.0564056 33.1286 0.169217L1.5415 12.8437C1.0876 13.0259 0.697482 13.346 0.422378 13.762C0.147274 14.178 4.03194e-05 14.6705 6.34797e-06 15.1747V42.0144C-0.00037936 42.1858 0.016813 42.3568 0.0512941 42.5245C1.80491 51.2926 5.82674 59.402 11.6865 65.9851C17.5463 72.5682 25.0237 77.3774 33.3186 79.8983Z" fill="#FFCD00"/>
</svg>
