<svg width="38" height="28" viewBox="0 0 38 28" fill="none" xmlns="http://www.w3.org/2000/svg">
<path d="M36.0661 6.7378L16.6116 26.3027C15.9072 26.9621 14.9792 27.3289 14.0152 27.3289C13.0512 27.3289 12.1232 26.9621 11.4188 26.3027L1.69152 16.4836C1.02391 15.8011 0.65212 14.8822 0.656937 13.9265C0.661754 12.9709 1.04279 12.0558 1.71725 11.38C2.39171 10.7043 3.30509 10.3225 4.25891 10.3177C5.21273 10.3129 6.12991 10.6854 6.81114 11.3542L13.9786 18.5354L30.9465 1.53513C31.631 0.865553 32.5497 0.490723 33.5063 0.490723C34.4629 0.490723 35.3816 0.865553 36.0661 1.53513C36.4133 1.87319 36.6894 2.27759 36.8778 2.72441C37.0663 3.17122 37.1634 3.65138 37.1634 4.13647C37.1634 4.62155 37.0663 5.10171 36.8778 5.54853C36.6894 5.99534 36.4133 6.39974 36.0661 6.7378Z" fill="white"/>
</svg>
